<?xml version="1.0" encoding="utf-8" standalone="no"?>
<!DOCTYPE svg PUBLIC "-//W3C//DTD SVG 1.1//EN"
  "http://www.w3.org/Graphics/SVG/1.1/DTD/svg11.dtd">
<svg xmlns:xlink="http://www.w3.org/1999/xlink" width="576pt" height="324pt" viewBox="0 0 576 324" xmlns="http://www.w3.org/2000/svg" version="1.1">
 <metadata>
  <rdf:RDF xmlns:dc="http://purl.org/dc/elements/1.1/" xmlns:cc="http://creativecommons.org/ns#" xmlns:rdf="http://www.w3.org/1999/02/22-rdf-syntax-ns#">
   <cc:Work>
    <dc:type rdf:resource="http://purl.org/dc/dcmitype/StillImage"/>
    <dc:date>2025-09-09T23:38:42.894991</dc:date>
    <dc:format>image/svg+xml</dc:format>
    <dc:creator>
     <cc:Agent>
      <dc:title>Matplotlib v3.9.3, https://matplotlib.org/</dc:title>
     </cc:Agent>
    </dc:creator>
   </cc:Work>
  </rdf:RDF>
 </metadata>
 <defs>
  <style type="text/css">*{stroke-linejoin: round; stroke-linecap: butt}</style>
 </defs>
 <g id="figure_1">
  <g id="patch_1">
   <path d="M 0 324 
L 576 324 
L 576 0 
L 0 0 
z
" style="fill: #ffffff"/>
  </g>
  <g id="axes_1">
   <g id="patch_2">
    <path d="M 12.96 311.04 
L 563.04 311.04 
L 563.04 12.96 
L 12.96 12.96 
z
" style="fill: #ffffff"/>
   </g>
   <g id="matplotlib.axis_1"/>
   <g id="matplotlib.axis_2"/>
   <g id="line2d_1">
    <path d="M 538.036364 150.35009 
L 535.536 150.420105 
L 518.033455 150.513711 
L 476.777455 150.584166 
L 400.516364 150.707577 
L 378.638182 150.942244 
L 364.886182 151.334765 
L 354.884727 151.89513 
L 347.383636 152.580977 
L 341.757818 153.296359 
L 335.506909 154.368619 
L 330.506182 155.461967 
L 326.130545 156.610849 
L 321.129818 158.134526 
L 314.253818 160.532602 
L 300.501818 165.457977 
L 295.501091 166.877509 
L 291.750545 167.714082 
L 288 168.325661 
L 284.249455 168.728993 
L 279.248727 168.923785 
L 274.248 168.831138 
L 269.247273 168.534367 
L 259.870909 167.678465 
L 242.368364 166.025315 
L 231.741818 165.281639 
L 217.364727 164.612239 
L 202.987636 164.238568 
L 189.235636 164.065021 
L 164.857091 164.00595 
L 137.353091 164.10872 
L 37.963636 164.642732 
L 39.213818 164.44719 
L 43.589455 164.281475 
L 54.841091 164.092099 
L 81.72 163.847567 
L 126.101455 163.452443 
L 217.989818 162.142053 
L 229.866545 161.723683 
L 238.617818 161.267238 
L 246.118909 160.714689 
L 252.369818 160.082739 
L 258.620727 159.238334 
L 264.246545 158.248044 
L 269.872364 156.995267 
L 275.498182 155.467549 
L 281.124 153.674479 
L 289.250182 150.75894 
L 297.376364 147.848986 
L 301.752 146.480159 
L 305.502545 145.488203 
L 309.878182 144.5976 
L 314.253818 144.011099 
L 318.004364 143.741073 
L 321.754909 143.650217 
L 327.380727 143.813807 
L 334.256727 144.327573 
L 347.383636 145.659125 
L 358.010182 146.690194 
L 369.886909 147.616144 
L 380.513455 148.23982 
L 394.265455 148.819968 
L 411.142909 149.28702 
L 431.145818 149.623486 
L 456.149455 149.863556 
L 494.28 150.032033 
L 534.285818 150.081381 
L 537.411273 150.080977 
L 537.411273 150.080977 
" clip-path="url(#p2c3223cb13)" style="fill: none; stroke: #440154; stroke-opacity: 0.8; stroke-width: 10; stroke-linecap: square"/>
   </g>
   <g id="line2d_2">
    <path d="M 538.036364 150.208354 
L 536.161091 150.304042 
L 523.659273 150.414504 
L 475.527273 150.544042 
L 410.517818 150.677984 
L 389.264727 150.856694 
L 374.887636 151.166118 
L 364.261091 151.637935 
L 357.385091 152.139045 
L 351.134182 152.79202 
L 346.133455 153.50044 
L 340.507636 154.553976 
L 336.132 155.591731 
L 331.756364 156.848174 
L 327.380727 158.350397 
L 323.005091 160.090113 
L 317.379273 162.645822 
L 313.628727 164.473227 
L 304.877455 168.839886 
L 300.501818 170.825382 
L 294.876 172.918689 
L 291.750545 173.813167 
L 288.625091 174.491065 
L 284.874545 175.022869 
L 281.749091 175.205039 
L 278.623636 175.224701 
L 274.873091 175.027535 
L 271.122545 174.659571 
L 266.121818 173.966176 
L 257.995636 172.609338 
L 239.868 169.67825 
L 229.241455 168.357946 
L 221.740364 167.609521 
L 210.488727 166.730541 
L 198.612 166.042978 
L 187.360364 165.547291 
L 172.983273 165.071225 
L 148.604727 164.520717 
L 73.593818 163.601578 
L 37.963636 163.338508 
L 39.213818 163.034864 
L 42.339273 162.790208 
L 50.465455 162.46411 
L 71.718545 162.013705 
L 150.48 161.105439 
L 192.986182 160.729519 
L 223.615636 160.228417 
L 236.117455 159.708152 
L 244.243636 159.11961 
L 250.494545 158.442878 
L 255.495273 157.715698 
L 260.496 156.77194 
L 265.496727 155.574027 
L 269.247273 154.488136 
L 272.997818 153.235201 
L 278.623636 151.023577 
L 282.374182 149.374476 
L 288 146.709615 
L 293.625818 143.978522 
L 300.501818 140.969201 
L 304.252364 139.620861 
L 307.377818 138.701389 
L 311.128364 137.877938 
L 314.253818 137.424993 
L 317.379273 137.188709 
L 321.129818 137.14426 
L 324.880364 137.333095 
L 328.630909 137.701101 
L 333.631636 138.390288 
L 344.258182 140.202155 
L 358.010182 142.485921 
L 368.636727 143.935365 
L 378.638182 145.030466 
L 388.014545 145.862915 
L 403.641818 146.905124 
L 418.018909 147.600277 
L 436.771636 148.24896 
L 459.9 148.787375 
L 489.279273 149.207199 
L 524.284364 149.470552 
L 537.411273 149.520358 
L 537.411273 149.520358 
" clip-path="url(#p2c3223cb13)" style="fill: none; stroke: #443983; stroke-opacity: 0.8; stroke-width: 10; stroke-linecap: square"/>
   </g>
   <g id="line2d_3">
    <path d="M 538.036364 149.814745 
L 536.786182 149.95759 
L 528.66 150.111512 
L 482.403273 150.392164 
L 408.642545 150.703919 
L 393.015273 150.901039 
L 379.263273 151.279494 
L 369.886909 151.770023 
L 362.385818 152.40356 
L 357.385091 153.001575 
L 352.384364 153.792883 
L 348.633818 154.54664 
L 345.508364 155.29142 
L 341.757818 156.356778 
L 337.382182 157.888537 
L 334.256727 159.170682 
L 330.506182 160.960887 
L 328.005818 162.29323 
L 323.630182 164.933088 
L 320.504727 167.023395 
L 316.754182 169.700912 
L 308.002909 176.40945 
L 304.252364 179.220314 
L 300.501818 181.806183 
L 296.126182 184.39601 
L 293.625818 185.611711 
L 291.125455 186.635786 
L 288.625091 187.439033 
L 285.499636 188.129678 
L 283.624364 188.38325 
L 280.498909 188.557296 
L 276.748364 188.385416 
L 273.622909 187.992957 
L 269.872364 187.292022 
L 265.496727 186.253451 
L 256.745455 183.813967 
L 247.994182 181.357778 
L 238.617818 179.022231 
L 232.366909 177.674891 
L 226.116 176.485851 
L 215.489455 174.824786 
L 207.988364 173.868697 
L 194.861455 172.573512 
L 182.359636 171.674244 
L 172.983273 171.154979 
L 152.355273 170.295078 
L 136.102909 169.748818 
L 110.474182 168.949946 
L 87.345818 168.280921 
L 56.091273 167.547076 
L 38.588727 167.229602 
L 37.963636 166.900296 
L 38.588727 166.504755 
L 40.464 166.138707 
L 44.214545 165.698217 
L 51.715636 165.104635 
L 62.342182 164.499513 
L 82.345091 163.67627 
L 124.226182 162.405289 
L 175.483636 161.162011 
L 202.987636 160.511732 
L 216.739636 160.053287 
L 232.992 159.091532 
L 241.118182 158.244045 
L 246.118909 157.512283 
L 251.744727 156.430804 
L 256.745455 155.165863 
L 261.746182 153.558053 
L 266.121818 151.815518 
L 269.872364 150.041052 
L 274.248 147.642493 
L 277.998545 145.311573 
L 283.624364 141.401526 
L 289.250182 137.18321 
L 298.001455 130.841219 
L 300.501818 129.22981 
L 304.252364 127.152167 
L 306.752727 125.982289 
L 309.253091 125.024867 
L 311.753455 124.296563 
L 314.253818 123.772424 
L 317.379273 123.419207 
L 320.504727 123.361802 
L 323.630182 123.571008 
L 327.380727 124.109477 
L 332.381455 125.1815 
L 338.007273 126.682808 
L 345.508364 128.838685 
L 350.509091 130.260675 
L 356.134909 131.778604 
L 364.261091 133.730566 
L 371.762182 135.28657 
L 380.513455 136.817913 
L 388.639636 138.01166 
L 398.016 139.16829 
L 411.142909 140.475972 
L 430.520727 141.926415 
L 443.647636 142.692919 
L 475.527273 144.071794 
L 491.154545 144.588352 
L 533.035636 145.600637 
L 537.411273 145.675621 
L 537.411273 145.675621 
" clip-path="url(#p2c3223cb13)" style="fill: none; stroke: #31688e; stroke-opacity: 0.8; stroke-width: 10; stroke-linecap: square"/>
   </g>
   <g id="line2d_4">
    <path d="M 538.036364 149.348498 
L 537.411273 149.62102 
L 535.536 149.749818 
L 526.784727 149.94503 
L 511.782545 150.11534 
L 482.403273 150.306084 
L 429.895636 150.545295 
L 394.265455 150.974 
L 384.264 151.29127 
L 376.137818 151.713289 
L 369.261818 152.259986 
L 363.636 152.893877 
L 358.635273 153.656137 
L 353.634545 154.665423 
L 349.258909 155.81181 
L 345.508364 157.017013 
L 341.757818 158.484702 
L 338.007273 160.239789 
L 334.256727 162.328139 
L 331.756364 163.909221 
L 328.630909 166.123002 
L 325.505455 168.582607 
L 321.754909 171.866537 
L 316.754182 176.724176 
L 308.002909 185.973843 
L 303.627273 190.498677 
L 299.876727 194.074045 
L 296.126182 197.195885 
L 293.000727 199.359594 
L 290.500364 200.773878 
L 288 201.896973 
L 284.874545 202.852604 
L 283.624364 203.101718 
L 280.498909 203.432482 
L 277.373455 203.346666 
L 273.622909 202.76054 
L 271.122545 202.175664 
L 267.997091 201.256692 
L 264.246545 199.920725 
L 246.118909 192.741827 
L 242.993455 191.614524 
L 241.118182 190.946541 
L 234.242182 188.716763 
L 229.241455 187.2799 
L 222.990545 185.679614 
L 215.489455 184.036711 
L 208.613455 182.752525 
L 199.237091 181.295666 
L 192.986182 180.478548 
L 183.609818 179.450765 
L 171.733091 178.433522 
L 159.856364 177.657936 
L 141.728727 176.785912 
L 85.470545 174.601583 
L 38.588727 173.08682 
L 37.963636 172.786426 
L 38.588727 171.974556 
L 39.838909 171.454791 
L 42.339273 170.894326 
L 46.714909 170.197848 
L 53.590909 169.390769 
L 64.217455 168.436596 
L 77.344364 167.501044 
L 106.723636 165.869723 
L 162.356727 163.425365 
L 182.984727 162.649654 
L 219.865091 160.865782 
L 230.491636 159.919982 
L 236.117455 159.216089 
L 242.368364 158.166936 
L 246.744 157.207972 
L 250.494545 156.198561 
L 254.245091 154.989192 
L 257.995636 153.530726 
L 261.746182 151.778551 
L 264.871636 150.087138 
L 267.997091 148.16494 
L 271.747636 145.509198 
L 274.873091 143.024224 
L 277.998545 140.293844 
L 281.749091 136.739138 
L 286.124727 132.280956 
L 297.376364 120.666997 
L 301.126909 117.278923 
L 303.627273 115.268765 
L 306.752727 113.134133 
L 309.253091 111.723848 
L 311.753455 110.634329 
L 314.253818 109.844746 
L 316.754182 109.3551 
L 319.254545 109.152892 
L 321.129818 109.150143 
L 323.630182 109.36868 
L 326.755636 109.929312 
L 330.506182 110.944472 
L 335.506909 112.681271 
L 358.635273 121.830376 
L 363.636 123.525517 
L 369.261818 125.250277 
L 375.512727 126.946377 
L 381.763636 128.430021 
L 388.014545 129.738703 
L 398.016 131.51266 
L 406.767273 132.806595 
L 417.393818 134.126941 
L 428.645455 135.300775 
L 442.397455 136.496647 
L 454.899273 137.407371 
L 481.778182 138.95671 
L 506.156727 140.027275 
L 537.411273 141.058474 
L 537.411273 141.058474 
" clip-path="url(#p2c3223cb13)" style="fill: none; stroke: #21918c; stroke-opacity: 0.8; stroke-width: 10; stroke-linecap: square"/>
   </g>
   <g id="line2d_5">
    <path d="M 538.036364 148.364294 
L 537.411273 148.803118 
L 536.161091 148.971791 
L 532.410545 149.151544 
L 516.158182 149.511218 
L 503.031273 149.696096 
L 483.028364 149.923547 
L 431.145818 150.413859 
L 389.264727 151.305755 
L 382.388727 151.681092 
L 374.887636 152.287214 
L 366.761455 153.317829 
L 362.385818 154.092665 
L 358.010182 155.088296 
L 354.259636 156.158903 
L 351.759273 156.996226 
L 348.633818 158.220966 
L 345.508364 159.658162 
L 342.382909 161.332808 
L 339.882545 162.869983 
L 336.132 165.540251 
L 333.006545 168.127203 
L 329.881091 171.02659 
L 324.880364 176.450442 
L 320.504727 181.890957 
L 318.004364 185.244414 
L 314.253818 190.551624 
L 301.752 208.626799 
L 299.251636 211.876111 
L 294.250909 217.416605 
L 291.750545 219.666129 
L 289.250182 221.540733 
L 286.749818 222.915442 
L 284.249455 223.998546 
L 280.498909 224.706729 
L 276.748364 224.623414 
L 274.873091 224.290151 
L 272.997818 223.831914 
L 271.747636 223.415336 
L 269.247273 222.498863 
L 267.372 221.665706 
L 264.246545 220.166024 
L 261.746182 218.791314 
L 256.745455 216.000238 
L 251.119636 212.750926 
L 239.868 206.877169 
L 233.617091 204.044435 
L 224.865818 200.628492 
L 217.364727 198.212336 
L 204.237818 194.796393 
L 189.860727 192.005483 
L 185.485091 191.338958 
L 183.609818 191.047353 
L 168.607636 189.156086 
L 154.855636 187.889688 
L 131.102182 186.398337 
L 124.226182 186.06924 
L 116.1 185.690153 
L 105.473455 185.231917 
L 98.597455 184.919483 
L 86.720727 184.415423 
L 67.342909 183.619758 
L 38.588727 182.574146 
L 37.963636 181.899289 
L 38.588727 180.55374 
L 39.213818 180.037183 
L 40.464 179.462304 
L 42.339273 178.849934 
L 46.714909 177.791825 
L 50.465455 177.066978 
L 56.091273 176.14634 
L 67.342909 174.66332 
L 97.347273 171.755602 
L 105.473455 171.10574 
L 116.1 170.289246 
L 146.104364 168.18969 
L 156.730909 167.518999 
L 174.858545 166.419231 
L 201.737455 164.707094 
L 224.240727 162.657528 
L 231.741818 161.566092 
L 237.367636 160.478822 
L 240.493091 159.733146 
L 243.618545 158.883326 
L 247.369091 157.662751 
L 250.494545 156.442176 
L 252.994909 155.346575 
L 256.745455 153.396979 
L 259.870909 151.512378 
L 263.621455 148.841693 
L 266.746909 146.268079 
L 269.247273 143.969816 
L 271.747636 141.453682 
L 273.622909 139.433276 
L 276.748364 135.763219 
L 279.873818 131.822387 
L 284.874545 124.919681 
L 289.250182 118.558527 
L 298.626545 105.356987 
L 301.752 101.482807 
L 306.127636 96.942102 
L 308.002909 95.317446 
L 309.878182 93.901079 
L 311.753455 92.734659 
L 314.878909 91.35995 
L 316.754182 90.818398 
L 320.504727 90.401819 
L 323.630182 90.693424 
L 326.755636 91.401608 
L 329.256 92.276422 
L 336.132 95.567393 
L 341.132727 98.358469 
L 348.633818 102.732543 
L 362.385818 109.964512 
L 366.136364 111.672484 
L 372.387273 114.22611 
L 378.013091 116.263179 
L 384.889091 118.446051 
L 392.390182 120.491451 
L 399.266182 122.120273 
L 406.767273 123.665779 
L 419.894182 125.915303 
L 432.396 127.644104 
L 439.897091 128.543914 
L 456.774545 130.243554 
L 474.902182 131.718242 
L 518.658545 134.234376 
L 537.411273 134.984217 
L 537.411273 134.984217 
" clip-path="url(#p2c3223cb13)" style="fill: none; stroke: #35b779; stroke-opacity: 0.8; stroke-width: 10; stroke-linecap: square"/>
   </g>
   <g id="line2d_6">
    <path d="M 538.036364 147.979817 
L 537.411273 148.525797 
L 534.910909 148.766705 
L 526.784727 149.108395 
L 521.158909 149.243754 
L 517.408364 149.344545 
L 508.032 149.503628 
L 503.656364 149.574975 
L 488.029091 149.780407 
L 483.653455 149.835508 
L 411.142909 150.751801 
L 408.642545 150.824877 
L 398.641091 151.140507 
L 388.639636 151.652348 
L 381.138545 152.24858 
L 369.886909 153.816324 
L 364.886182 154.888963 
L 361.135636 155.905873 
L 354.884727 158.188098 
L 352.384364 159.345145 
L 349.258909 161.02154 
L 347.383636 162.150718 
L 344.883273 163.832612 
L 341.132727 166.786612 
L 338.007273 169.662795 
L 334.256727 173.737391 
L 332.381455 176.024657 
L 329.881091 179.264555 
L 324.880364 186.77334 
L 319.879636 195.394183 
L 311.753455 211.290818 
L 306.127636 222.734647 
L 303.627273 227.72859 
L 301.126909 232.430511 
L 298.626545 236.882486 
L 297.376364 238.962879 
L 295.501091 241.875179 
L 293.625818 244.537116 
L 290.500364 248.363389 
L 289.875273 248.944933 
L 289.250182 249.693525 
L 286.749818 251.771418 
L 284.249455 253.349001 
L 282.999273 253.846396 
L 281.749091 254.302133 
L 279.248727 254.754953 
L 276.748364 254.666222 
L 274.248 254.119671 
L 271.747636 253.197783 
L 266.746909 250.43795 
L 258.620727 244.380482 
L 256.120364 242.334249 
L 245.493818 233.938525 
L 239.242909 229.468222 
L 233.617091 225.831908 
L 228.616364 222.947102 
L 222.990545 220.019388 
L 221.740364 219.475336 
L 219.865091 218.596356 
L 216.114545 216.922127 
L 214.864364 216.419733 
L 209.863636 214.493057 
L 197.986909 210.593883 
L 196.736727 210.299778 
L 196.111636 210.048581 
L 194.236364 209.586179 
L 187.985455 207.990267 
L 184.234909 207.149195 
L 182.984727 206.855091 
L 181.734545 206.602227 
L 172.983273 204.917584 
L 170.482909 204.496006 
L 167.982545 204.074012 
L 148.604727 201.534133 
L 144.854182 201.192956 
L 142.353818 200.937593 
L 138.603273 200.596415 
L 136.728 200.426034 
L 111.099273 198.74764 
L 109.224 198.660158 
L 102.973091 198.313981 
L 100.472727 198.22525 
L 94.846909 197.921981 
L 92.346545 197.833666 
L 87.345818 197.572888 
L 85.470545 197.485823 
L 81.094909 197.268369 
L 78.594545 197.179638 
L 73.593818 196.919277 
L 71.093455 196.830962 
L 67.342909 196.656416 
L 64.842545 196.567684 
L 60.466909 196.35023 
L 57.966545 196.261916 
L 53.590909 196.044462 
L 50.465455 195.954481 
L 46.089818 195.737027 
L 42.964364 195.647046 
L 39.838909 195.515407 
L 38.588727 195.47125 
L 37.963636 193.095503 
L 38.588727 191.263807 
L 39.838909 190.224985 
L 41.089091 189.561084 
L 44.214545 188.226241 
L 47.34 187.162217 
L 59.841818 184.118236 
L 68.593091 182.486914 
L 81.094909 180.534369 
L 92.971636 178.90963 
L 96.097091 178.524586 
L 106.723636 177.25548 
L 109.224 176.956585 
L 157.356 172.01688 
L 161.731636 171.646958 
L 163.606909 171.471787 
L 169.232727 170.942024 
L 181.734545 169.814305 
L 183.609818 169.639092 
L 190.485818 168.974482 
L 194.861455 168.550405 
L 199.862182 168.036014 
L 216.114545 166.133 
L 224.240727 164.850313 
L 234.867273 162.473067 
L 242.993455 159.724023 
L 246.744 158.057251 
L 249.244364 156.712786 
L 251.744727 155.264176 
L 257.995636 150.676988 
L 261.121091 147.834977 
L 263.621455 145.278664 
L 266.121818 142.455345 
L 268.622182 139.290431 
L 270.497455 136.724058 
L 272.372727 134.036918 
L 274.873091 130.197106 
L 280.498909 120.435963 
L 284.249455 113.374499 
L 288.625091 104.597981 
L 291.750545 98.397627 
L 293.625818 94.610512 
L 298.626545 85.122936 
L 302.377091 78.7572 
L 305.502545 74.098186 
L 308.628 70.313987 
L 311.128364 67.902831 
L 314.253818 65.70163 
L 316.129091 64.789323 
L 317.379273 64.333586 
L 318.629455 64.002823 
L 321.129818 63.841607 
L 324.255273 64.306092 
L 326.130545 64.85181 
L 330.506182 66.943867 
L 331.756364 67.779523 
L 333.631636 68.991767 
L 338.632364 72.751388 
L 341.757818 75.340423 
L 343.008 76.343128 
L 346.758545 79.475382 
L 356.76 87.369544 
L 360.510545 90.001904 
L 363.010909 91.714875 
L 366.761455 94.138945 
L 369.261818 95.602385 
L 372.387273 97.35868 
L 378.638182 100.579249 
L 380.513455 101.416155 
L 384.264 103.090384 
L 392.390182 106.248465 
L 396.140727 107.564437 
L 404.266909 110.064325 
L 416.768727 113.256524 
L 421.144364 114.215488 
L 426.145091 115.247394 
L 431.770909 116.310919 
L 434.271273 116.746119 
L 441.772364 118.001728 
L 444.897818 118.46763 
L 453.649091 119.726321 
L 468.651273 121.566849 
L 475.527273 122.287696 
L 479.277818 122.671781 
L 486.778909 123.402502 
L 489.904364 123.676777 
L 525.534545 126.271811 
L 537.411273 126.917466 
L 537.411273 126.917466 
" clip-path="url(#p2c3223cb13)" style="fill: none; stroke: #90d743; stroke-opacity: 0.8; stroke-width: 10; stroke-linecap: square"/>
   </g>
   <g id="line2d_7">
    <path d="M 538.036364 146.290366 
L 537.411273 148.012198 
L 535.536 148.383611 
L 533.660727 148.588813 
L 531.785455 148.666122 
L 530.535273 148.772928 
L 523.034182 149.081755 
L 521.158909 149.120742 
L 519.283636 149.236376 
L 518.033455 149.215293 
L 514.908 149.284437 
L 513.657818 149.314593 
L 510.532364 149.434972 
L 509.282182 149.4393 
L 504.281455 149.509102 
L 502.406182 149.573501 
L 501.156 149.590743 
L 414.268364 150.911855 
L 412.393091 151.006434 
L 411.768 150.967142 
L 409.892727 151.078382 
L 406.767273 151.131871 
L 405.517091 151.215753 
L 403.641818 151.314499 
L 401.766545 151.371587 
L 397.390909 151.629761 
L 391.14 152.045007 
L 389.264727 152.268722 
L 388.014545 152.35677 
L 386.139273 152.518003 
L 384.264 152.754219 
L 381.763636 153.017797 
L 374.262545 154.300088 
L 369.261818 155.447928 
L 367.386545 156.004935 
L 366.136364 156.384563 
L 363.010909 157.425343 
L 360.510545 158.476246 
L 358.635273 159.329024 
L 356.134909 160.61321 
L 351.134182 163.743964 
L 346.133455 167.857885 
L 341.132727 173.100692 
L 336.757091 178.761911 
L 333.006545 184.608174 
L 329.256 191.245977 
L 323.630182 203.102135 
L 321.754909 207.262504 
L 318.629455 215.085432 
L 314.878909 224.864196 
L 303.002182 257.864712 
L 296.126182 274.966093 
L 292.375636 282.870253 
L 291.750545 283.826718 
L 291.125455 285.074787 
L 289.250182 288.068736 
L 288.625091 289.149758 
L 288 289.897933 
L 287.374909 290.854397 
L 286.749818 291.393866 
L 286.124727 292.308672 
L 285.499636 292.890216 
L 284.874545 293.72129 
L 282.374182 295.755443 
L 281.749091 296.003724 
L 281.124 296.418636 
L 278.623636 297.32761 
L 276.748364 297.488826 
L 274.873091 297.275121 
L 274.248 297.190139 
L 272.372727 296.518198 
L 269.247273 294.84272 
L 268.622182 294.299501 
L 267.997091 293.922914 
L 262.996364 289.450944 
L 256.120364 281.97461 
L 245.493818 269.98798 
L 244.243636 268.693254 
L 236.117455 260.587886 
L 234.242182 258.957814 
L 233.617091 258.33128 
L 232.366909 257.286501 
L 229.866545 255.154452 
L 228.616364 254.192989 
L 224.865818 251.266108 
L 223.615636 250.387544 
L 221.740364 249.049078 
L 220.490182 248.253829 
L 215.489455 245.032011 
L 212.364 243.273217 
L 211.738909 242.813314 
L 211.113818 242.561701 
L 209.238545 241.514839 
L 207.363273 240.551293 
L 206.113091 239.922676 
L 197.361818 235.898527 
L 191.110909 233.422385 
L 190.485818 233.254087 
L 189.860727 232.960816 
L 188.610545 232.540488 
L 180.484364 229.851057 
L 179.859273 229.724417 
L 179.234182 229.472387 
L 178.609091 229.345747 
L 177.984 229.094134 
L 177.358909 228.967078 
L 176.733818 228.715464 
L 176.108727 228.630482 
L 175.483636 228.378452 
L 173.608364 227.956458 
L 171.733091 227.367833 
L 171.108 227.282851 
L 169.857818 226.945839 
L 166.107273 226.018952 
L 164.857091 225.765255 
L 149.854909 222.805882 
L 148.604727 222.635917 
L 146.104364 222.211841 
L 132.977455 220.466377 
L 132.352364 220.464294 
L 131.727273 220.295996 
L 127.351636 219.908578 
L 124.851273 219.609475 
L 124.226182 219.649466 
L 122.976 219.479086 
L 121.100727 219.307039 
L 120.475636 219.305372 
L 119.850545 219.178732 
L 117.975273 219.090001 
L 116.1 218.876296 
L 114.224727 218.787565 
L 112.349455 218.615518 
L 101.722909 217.918582 
L 101.097818 217.958157 
L 99.222545 217.786111 
L 97.347273 217.739037 
L 96.722182 217.612397 
L 93.596727 217.519917 
L 86.095636 217.081676 
L 85.470545 217.121668 
L 84.845455 217.036686 
L 84.220364 217.076677 
L 82.345091 216.90463 
L 80.469818 216.899215 
L 79.844727 216.772158 
L 79.219636 216.853808 
L 77.969455 216.725085 
L 75.469091 216.634688 
L 71.718545 216.415567 
L 70.468364 216.411818 
L 68.593091 216.365161 
L 67.968 216.279763 
L 67.342909 216.319754 
L 66.717818 216.193114 
L 65.467636 216.189365 
L 63.592364 216.142292 
L 62.967273 216.05731 
L 62.342182 216.096885 
L 61.717091 216.011903 
L 61.092 216.051894 
L 59.841818 215.964829 
L 56.091273 215.787367 
L 55.466182 215.827358 
L 54.841091 215.74196 
L 53.590909 215.738627 
L 49.840364 215.519507 
L 49.215273 215.601156 
L 47.965091 215.514091 
L 44.839636 215.379953 
L 44.214545 215.419945 
L 42.964364 215.33288 
L 39.838909 215.199158 
L 38.588727 215.153751 
L 37.963636 212.902561 
L 38.588727 208.071916 
L 39.213818 206.823847 
L 40.464 205.452887 
L 44.214545 202.797616 
L 46.089818 201.886559 
L 47.34 201.26544 
L 50.465455 199.857821 
L 52.340727 199.155053 
L 53.590909 198.658908 
L 55.466182 197.997798 
L 61.092 196.222757 
L 62.967273 195.728279 
L 63.592364 195.43834 
L 65.467636 194.985519 
L 67.342909 194.449383 
L 67.968 194.367733 
L 69.218182 193.954904 
L 73.593818 192.884297 
L 77.344364 192.061971 
L 79.219636 191.60915 
L 79.844727 191.527626 
L 80.469818 191.321128 
L 81.094909 191.281261 
L 81.72 191.074764 
L 82.970182 190.870098 
L 85.470545 190.294095 
L 86.095636 190.254229 
L 86.720727 190.047731 
L 87.970909 189.801366 
L 97.347273 188.037115 
L 97.972364 187.95559 
L 98.597455 187.749092 
L 99.847636 187.586044 
L 101.722909 187.299854 
L 102.348 187.135014 
L 102.973091 187.095147 
L 103.598182 186.888691 
L 104.848364 186.725642 
L 109.224 185.946724 
L 111.099273 185.710524 
L 113.599636 185.255328 
L 115.474909 184.927481 
L 116.1 184.904278 
L 116.725091 184.72694 
L 117.350182 184.691239 
L 119.225455 184.3259 
L 119.850545 184.290199 
L 120.475636 184.125359 
L 122.350909 183.889159 
L 124.226182 183.536276 
L 126.726545 183.172728 
L 137.978182 181.530492 
L 138.603273 181.353154 
L 139.853455 181.190147 
L 144.854182 180.488004 
L 146.729455 180.210146 
L 148.604727 179.94891 
L 150.48 179.63356 
L 151.105091 179.647848 
L 151.730182 179.48305 
L 152.355273 179.459847 
L 153.605455 179.234311 
L 155.480727 178.943956 
L 156.105818 178.945747 
L 156.730909 178.76841 
L 157.981091 178.6179 
L 188.610545 174.323684 
L 189.235636 174.196336 
L 189.860727 174.185629 
L 190.485818 174.008292 
L 191.110909 174.022622 
L 191.736 173.845285 
L 192.986182 173.682236 
L 195.486545 173.256201 
L 196.111636 173.245495 
L 197.361818 173.003338 
L 197.986909 172.95514 
L 198.612 172.777802 
L 199.237091 172.742102 
L 199.862182 172.589759 
L 201.737455 172.378554 
L 202.362545 172.201216 
L 202.987636 172.203007 
L 203.612727 171.98822 
L 204.237818 171.952519 
L 204.862909 171.787679 
L 206.113091 171.612132 
L 207.988364 171.359269 
L 208.613455 171.131942 
L 209.238545 171.108781 
L 209.863636 170.931443 
L 211.113818 170.755897 
L 217.989818 169.421804 
L 219.24 169.079668 
L 219.865091 169.043968 
L 220.490182 168.78748 
L 221.115273 168.726785 
L 221.740364 168.511997 
L 222.365455 168.434638 
L 224.240727 167.877631 
L 224.865818 167.80448 
L 225.490909 167.522998 
L 226.116 167.512292 
L 226.741091 167.222478 
L 227.366182 167.132622 
L 236.742545 163.822864 
L 237.367636 163.491393 
L 237.992727 163.330718 
L 238.617818 162.895102 
L 239.242909 162.705267 
L 241.118182 161.71506 
L 241.743273 161.458573 
L 242.368364 161.027123 
L 242.993455 160.799837 
L 243.618545 160.289237 
L 244.243636 160.024418 
L 244.868727 159.526315 
L 246.118909 158.800927 
L 247.994182 157.5524 
L 249.244364 156.522909 
L 251.744727 154.509689 
L 253.62 152.840447 
L 258.620727 147.521389 
L 263.621455 140.874679 
L 268.622182 132.667083 
L 271.747636 126.860645 
L 276.123273 117.500251 
L 277.998545 113.273187 
L 279.873818 108.600468 
L 281.749091 103.977696 
L 288 87.357463 
L 294.250909 70.129026 
L 301.126909 52.569409 
L 302.377091 49.740008 
L 304.877455 44.290328 
L 306.752727 40.629853 
L 309.878182 35.389711 
L 312.378545 32.064582 
L 313.003636 31.483038 
L 313.628727 30.651548 
L 314.253818 30.153736 
L 314.878909 29.488877 
L 318.004364 27.539706 
L 318.629455 27.166868 
L 321.129818 26.59074 
L 321.754909 26.509091 
L 323.630182 26.681138 
L 325.505455 27.103132 
L 329.881091 29.573859 
L 330.506182 29.950446 
L 331.131273 30.57698 
L 331.756364 30.995225 
L 336.757091 35.7588 
L 347.383636 47.953719 
L 349.258909 50.166584 
L 351.134182 52.29655 
L 353.009455 54.426516 
L 361.135636 63.031778 
L 368.636727 69.926569 
L 370.512 71.431667 
L 372.387273 72.936765 
L 375.512727 75.320428 
L 379.263273 77.997361 
L 381.138545 79.210854 
L 383.013818 80.466005 
L 383.638909 80.759276 
L 384.889091 81.554525 
L 386.764364 82.684702 
L 396.140727 87.627406 
L 398.016 88.465562 
L 401.141455 89.891094 
L 402.391636 90.394737 
L 409.892727 93.332449 
L 421.769455 97.282446 
L 423.644727 97.746098 
L 426.145091 98.544679 
L 428.020364 99.012497 
L 434.896364 100.848775 
L 435.521455 100.936256 
L 436.146545 101.148711 
L 437.396727 101.406574 
L 439.897091 102.006447 
L 447.398182 103.638185 
L 448.023273 103.808982 
L 448.648364 103.854805 
L 450.523636 104.291796 
L 462.400364 106.481749 
L 465.525818 106.972896 
L 466.776 107.201597 
L 468.651273 107.518197 
L 470.526545 107.776059 
L 471.776727 108.001011 
L 477.402545 108.829169 
L 488.029091 110.319104 
L 488.654182 110.310689 
L 490.529455 110.602044 
L 499.280727 111.604874 
L 501.156 111.862902 
L 504.281455 112.149925 
L 506.156727 112.416285 
L 508.032 112.570169 
L 513.657818 113.119345 
L 516.158182 113.389787 
L 529.285091 114.537836 
L 530.535273 114.650146 
L 534.285818 114.903759 
L 537.411273 115.165828 
L 537.411273 115.165828 
" clip-path="url(#p2c3223cb13)" style="fill: none; stroke: #fde725; stroke-opacity: 0.8; stroke-width: 10; stroke-linecap: square"/>
   </g>
  </g>
 </g>
 <defs>
  <clipPath id="p2c3223cb13">
   <rect x="12.96" y="12.96" width="550.08" height="298.08"/>
  </clipPath>
 </defs>
</svg>
